<svg width="100" height="100" viewBox="0 0 100 100" fill="none" xmlns="http://www.w3.org/2000/svg">
<g clip-path="url(#clip0)">
<path d="M94.4801 1.76722e-07H5.51529C2.46887 0.00152606 -0.000762763 2.47269 1.76722e-07 5.51987V94.4847C0.00152606 97.5311 2.47269 100.001 5.51987 100H94.4801C97.5281 100.001 99.9992 97.5304 100 94.4824C100 94.4817 100 94.4809 100 94.4801V5.51529C99.9985 2.46887 97.5273 -0.000762763 94.4801 1.76722e-07Z" fill="#4267B2"/>
<path d="M69.043 99.9992V61.3273H82.0801L84.0332 46.1906H69.043V36.5501C69.043 32.1777 70.2568 29.1984 76.5266 29.1984H84.4727V15.6967C83.0902 15.5128 78.347 15.1016 72.8279 15.1016C61.3045 15.1016 53.418 22.1328 53.418 35.0509V46.1906H40.4297V61.3273H53.418V99.9992H69.043Z" fill="white"/>
</g>
<defs>
<clipPath id="clip0">
<rect width="100" height="100" fill="white"/>
</clipPath>
</defs>
</svg>
