<svg width="100" height="100" viewBox="0 0 100 100" fill="none" xmlns="http://www.w3.org/2000/svg">
<g clip-path="url(#clip0)">
<path d="M6.2488 6.80391C-1.60954 14.9664 -0.00120428 23.6372 -0.00120428 49.9789C-0.00120428 71.8539 -3.81787 93.7831 16.1571 98.9456C22.3946 100.55 77.6613 100.55 83.8905 98.9372C92.2071 96.7914 98.9738 90.0456 99.8988 78.2831C100.028 76.6414 100.028 23.3456 99.8946 21.6706C98.9113 9.14141 91.1988 1.92058 81.0363 0.458079C78.7071 0.120579 78.2405 0.020579 66.2905 -0.000254288C23.903 0.020579 14.6113 -1.86692 6.2488 6.80391Z" fill="url(#paint0_linear)"/>
<path d="M49.9922 13.0786C34.863 13.0786 20.4964 11.7328 15.0089 25.8161C12.7422 31.6328 13.0714 39.1869 13.0714 50.0036C13.0714 59.4953 12.7672 68.4161 15.0089 74.1869C20.4839 88.2786 34.9672 86.9286 49.9839 86.9286C64.4714 86.9286 79.4089 88.4369 84.963 74.1869C87.2339 68.3119 86.9005 60.8703 86.9005 50.0036C86.9005 35.5786 87.6964 26.2661 80.7005 19.2744C73.6172 12.1911 64.038 13.0786 49.9755 13.0786H49.9922ZM46.6839 19.7328C78.2422 19.6828 82.2589 16.1744 80.0422 64.9119C79.2547 82.1494 66.1297 80.2578 49.9964 80.2578C20.5797 80.2578 19.7339 79.4161 19.7339 49.9869C19.7339 20.2161 22.0672 19.7494 46.6839 19.7244V19.7328ZM69.7005 25.8619C67.2547 25.8619 65.2714 27.8453 65.2714 30.2911C65.2714 32.7369 67.2547 34.7203 69.7005 34.7203C72.1464 34.7203 74.1297 32.7369 74.1297 30.2911C74.1297 27.8453 72.1464 25.8619 69.7005 25.8619ZM49.9922 31.0411C39.5214 31.0411 31.0339 39.5328 31.0339 50.0036C31.0339 60.4744 39.5214 68.9619 49.9922 68.9619C60.463 68.9619 68.9464 60.4744 68.9464 50.0036C68.9464 39.5328 60.463 31.0411 49.9922 31.0411ZM49.9922 37.6953C66.263 37.6953 66.2839 62.3119 49.9922 62.3119C33.7255 62.3119 33.7005 37.6953 49.9922 37.6953Z" fill="white"/>
</g>
<defs>
<linearGradient id="paint0_linear" x1="6.44055" y1="93.6126" x2="99.38" y2="13.1746" gradientUnits="userSpaceOnUse">
<stop stop-color="#FFDD55"/>
<stop offset="0.5" stop-color="#FF543E"/>
<stop offset="1" stop-color="#C837AB"/>
</linearGradient>
<clipPath id="clip0">
<rect width="100" height="100" fill="white"/>
</clipPath>
</defs>
</svg>
