<svg xmlns="http://www.w3.org/2000/svg" viewBox="0 0 4422.44 1225.68"><defs><style>.cls-1{fill:#fd5a00;}</style></defs><g id="Camada_2" data-name="Camada 2"><g id="Camada_1-2" data-name="Camada 1"><path d="M1941.58,418V156.07H2070V862.58H1941.58V809.39c-40.15,46.16-92.34,69.24-152.55,69.24-137.49,0-248.88-118.41-248.88-264.93s111.39-265,248.88-265C1849.24,348.75,1901.43,371.83,1941.58,418Zm0,195.7c0-75.27-61.23-136.49-136.49-136.49S1668.6,538.43,1668.6,613.7s61.22,136.48,136.49,136.48S1941.58,689,1941.58,613.7Z"/><path d="M2688.24,364.81V862.58H2559.78V809.39c-40.14,46.16-92.33,69.24-152.54,69.24-137.49,0-248.88-118.41-248.88-264.93s111.39-265,248.88-265c60.21,0,112.4,23.08,152.54,69.25V364.81ZM2559.78,613.7c0-75.27-61.22-136.49-136.48-136.49s-136.49,61.22-136.49,136.49S2348,750.18,2423.3,750.18,2559.78,689,2559.78,613.7Z"/><path d="M3298.42,364.81V814.4c0,210.75-99.35,321.15-273,321.15-136.48,0-230.82-72.26-240.86-80.29l60.22-113.4c27.1,23.09,95.34,65.23,180.64,65.23,88.32,0,144.51-66.23,144.51-154.55V809.39c-40.14,46.16-92.32,69.24-152.54,69.24-137.49,0-248.88-118.41-248.88-264.93s111.39-265,248.88-265c60.22,0,112.4,23.08,152.54,69.25V364.81ZM3170,613.7c0-75.27-61.22-136.49-136.48-136.49S2897,538.43,2897,613.7s61.22,136.48,136.49,136.48S3170,689,3170,613.7Z"/><path d="M3836.34,702c0,101.36-80.28,176.62-218.77,176.62-118.43,0-205.74-50.17-230.82-72.25L3428.9,686c43.15,40.15,116.41,69.25,176.62,70.25,59.22,1,102.37-12,102.37-43.15,0-22.08-22.08-30.11-88.32-41.15-185.66-30.11-216.76-89.32-216.76-170.61,0-80.28,87.31-152.54,217.77-152.54,49.17,0,121.43,11,193.69,48.17l-36.13,116.42c-25.09-18.07-91.33-41.15-157.56-42.15-52.19-1-89.32,9-89.32,30.1,0,30.11,52.19,35.13,105.37,44.17C3805.24,572.55,3836.34,638.79,3836.34,702Z"/><path d="M4422.44,364.81V862.58H4294V809.39c-40.14,46.16-92.33,69.24-152.54,69.24-137.49,0-248.89-118.41-248.89-264.93s111.4-265,248.89-265c60.21,0,112.4,23.08,152.54,69.25V364.81ZM4294,613.7c0-75.27-61.22-136.49-136.49-136.49S4021,538.43,4021,613.7s61.22,136.48,136.48,136.48S4294,689,4294,613.7Z"/><path class="cls-1" d="M1092.7,231.61a616.13,616.13,0,0,0-85.34-87.74q-6.55-5.55-13.29-10.89A610.27,610.27,0,0,0,612.84,0H0V98.63L514.22,612.84,235.58,891.48,133,994.07l-87.74,87.75L0,1127.06v98.62H612.84a610.27,610.27,0,0,0,381.23-133q6.72-5.35,13.29-10.88a616.74,616.74,0,0,0,85.34-87.75,612.95,612.95,0,0,0,0-762.46ZM990.11,891.48a468.9,468.9,0,0,1-377.27,190.34H242.49l91.71-91.71L612.84,711.47l98.63-98.63-469-469H612.84a466.85,466.85,0,0,1,278.64,91.71,471.68,471.68,0,0,1,98.63,98.62,469.15,469.15,0,0,1,0,557.28Z"/></g></g></svg>