<svg width="100" height="100" viewBox="0 0 100 100" fill="none" xmlns="http://www.w3.org/2000/svg">
<path d="M90 0H10C4.47715 0 0 4.47715 0 10V90C0 95.5228 4.47715 100 10 100H90C95.5228 100 100 95.5228 100 90V10C100 4.47715 95.5228 0 90 0Z" fill="#61A8DE"/>
<path d="M78.7408 22.0744L11.8696 48.1335C9.70362 48.9776 9.83483 52.0858 12.0644 52.7441L23.9517 56.2543C27.1433 57.1968 29.6569 59.6652 30.6572 62.8392L35.3988 77.8848C36.0613 79.9867 38.7249 80.6239 40.2668 79.0495L42.9833 76.2758C46.4657 72.7201 52.0328 72.2665 56.0449 75.2115L66.2907 82.7322C68.4003 84.2807 71.4047 83.1302 71.9403 80.5688L83.3574 25.984C83.9165 23.3103 81.286 21.0826 78.7408 22.0744ZM70.3569 34.1882L39.2956 61.6557C38.986 61.9295 38.789 62.3085 38.7429 62.7193L37.547 73.3501C37.508 73.6968 37.0228 73.7426 36.9192 73.4095L31.999 57.5552C31.7737 56.8294 32.0675 56.0429 32.7132 55.6425L69.3934 32.8931C70.2369 32.3696 71.1006 33.5308 70.3569 34.1882Z" fill="white"/>
</svg>
