<svg width="100" height="100" viewBox="0 0 100 100" fill="none" xmlns="http://www.w3.org/2000/svg">
<g clip-path="url(#clip0)">
<path d="M92.7879 0H7.21211C3.22871 0 0 3.22871 0 7.21211V92.7879C0 96.7713 3.22871 100 7.21211 100H92.7879C96.7713 100 100 96.7713 100 92.7879V7.21211C100 3.22871 96.7713 0 92.7879 0V0ZM75.0482 38.2732V45.0336C71.8604 45.0348 68.7629 44.4102 65.8418 43.1775C63.9635 42.3846 62.2135 41.3627 60.6129 40.1281L60.6609 60.9371C60.6408 65.6228 58.7871 70.0254 55.432 73.3414C52.7016 76.0406 49.2416 77.7572 45.4916 78.3127C44.6104 78.4432 43.7137 78.5102 42.8068 78.5102C38.7926 78.5102 34.9813 77.2096 31.8637 74.8103C31.277 74.3586 30.716 73.8689 30.1816 73.3414C26.5455 69.7477 24.6705 64.8766 24.9861 59.7525C25.2271 55.852 26.7887 52.132 29.392 49.2164C32.8363 45.3582 37.6549 43.2166 42.8068 43.2166C43.7137 43.2166 44.6104 43.2846 45.4916 43.4152V45.9148V52.8682C44.6562 52.5926 43.7639 52.441 42.8348 52.441C38.1277 52.441 34.3197 56.2812 34.39 60.9916C34.4346 64.0055 36.0811 66.64 38.5092 68.0922C39.6502 68.7748 40.9631 69.1975 42.3641 69.2744C43.4617 69.3346 44.5156 69.1818 45.4916 68.8596C48.8545 67.7486 51.2805 64.5898 51.2805 60.8645L51.2916 46.9297V21.4898H60.6018C60.6107 22.4123 60.7043 23.3125 60.8783 24.1846C61.5811 27.7148 63.5709 30.7777 66.3404 32.8658C68.7553 34.6873 71.7623 35.767 75.0217 35.767C75.0238 35.767 75.0506 35.767 75.0484 35.7648V38.2732H75.0482Z" fill="black"/>
</g>
<defs>
<clipPath id="clip0">
<rect width="100" height="100" fill="white"/>
</clipPath>
</defs>
</svg>
