<svg width="100" height="100" viewBox="0 0 100 100" fill="none" xmlns="http://www.w3.org/2000/svg">
<path d="M100 0H0V100H100V0Z" fill="#50ABF1"/>
<path d="M13.2464 74.1277C19.9016 78.3486 27.7962 80.7913 36.2588 80.7913C60.0336 80.7913 79.3062 61.5165 79.3062 37.7439C79.3062 37.1504 79.2937 36.5612 79.2708 35.9738C80.1308 35.2971 85.4493 31.0343 86.7529 28.2938C86.7529 28.2938 82.4339 30.0887 78.2068 30.5116C78.1985 30.5116 78.1882 30.5136 78.1798 30.5136C78.1798 30.5136 78.1882 30.5094 78.2027 30.4991C78.5922 30.2388 84.0375 26.532 84.7747 22.1154C84.7747 22.1154 81.7199 23.746 77.4426 25.1725C76.7345 25.4077 75.9933 25.639 75.229 25.8534C72.4719 22.9108 68.5529 21.0742 64.2027 21.0742C55.8586 21.0742 49.0971 27.8337 49.0971 36.1715C49.0971 37.3481 49.2325 38.4933 49.4886 39.5928C48.3225 39.545 30.5658 38.5494 18.4859 23.9206C18.4859 23.9206 11.2662 33.7767 22.7882 43.9116C22.7882 43.9116 19.2857 43.772 16.2639 41.9666C16.2639 41.9666 15.1541 53.907 28.2023 56.9599C28.2023 56.9599 25.6348 57.9324 21.5387 57.239C21.5387 57.239 23.8294 66.8868 35.4222 67.7884C35.4222 67.7884 26.2551 76.0696 13.2422 74.1266L13.2464 74.1277Z" fill="white"/>
</svg>
