<svg width="100" height="100" viewBox="0 0 100 100" fill="none" xmlns="http://www.w3.org/2000/svg">
<path d="M100 0H0V100H100V0Z" fill="#7D3DAF"/>
<path d="M81.6279 32.235L81.6081 32.156C80.0107 25.6983 72.8091 18.7688 66.1955 17.3271L66.1209 17.3118C55.4238 15.2711 44.5775 15.2711 33.8826 17.3118L33.8058 17.3271C27.1945 18.7688 19.9929 25.6983 18.3932 32.156L18.3757 32.235C16.4008 41.2535 16.4008 50.3993 18.3757 59.4177L18.3932 59.4967C19.9246 65.6789 26.5899 72.29 32.9566 74.1082V81.3168C32.9566 83.9258 36.1361 85.2073 37.9442 83.3246L45.2479 75.7326C46.8319 75.8213 48.4169 75.8706 50.0018 75.8706C55.3865 75.8706 60.7735 75.3616 66.1209 74.3412L66.1955 74.3259C72.8091 72.8842 80.0107 65.9547 81.6081 59.4969L81.6279 59.418C83.6027 50.3993 83.6027 41.2535 81.6279 32.235ZM75.8482 58.1099C74.7817 62.323 69.3136 67.5607 64.9689 68.5284C59.2812 69.6099 53.5484 70.0723 47.8213 69.9136C47.7074 69.9105 47.5979 69.9546 47.5185 70.0363C46.7058 70.8705 42.1858 75.5106 42.1858 75.5106L36.5136 81.332C36.0988 81.7643 35.3703 81.4702 35.3703 80.8734V68.9317C35.3703 68.7344 35.2295 68.5668 35.0357 68.5288C35.0346 68.5286 35.0335 68.5284 35.0324 68.5281C30.6878 67.5605 25.2218 62.3227 24.1532 58.1097C22.3758 49.958 22.3758 41.6943 24.1532 33.5426C25.2218 29.3296 30.6878 24.0919 35.0324 23.1242C44.9659 21.2349 55.0376 21.2349 64.9689 23.1242C69.3158 24.0919 74.7817 29.3296 75.8482 33.5426C77.6275 41.6946 77.6275 49.9582 75.8482 58.1099Z" fill="white"/>
<path d="M59.4536 63.622C58.7856 63.4192 58.1491 63.283 57.5579 63.0376C51.4324 60.4962 45.7948 57.2175 41.3293 52.1915C38.7898 49.3335 36.8023 46.1068 35.1221 42.6921C34.3254 41.0727 33.6539 39.3899 32.9695 37.7181C32.3455 36.1935 33.2647 34.6185 34.2325 33.4697C35.1408 32.3917 36.3094 31.5667 37.5751 30.9586C38.563 30.484 39.5374 30.7576 40.2589 31.595C41.8186 33.4052 43.2512 35.3081 44.4114 37.4065C45.1247 38.6972 44.929 40.2749 43.6361 41.1532C43.3219 41.3667 43.0355 41.6173 42.7428 41.8585C42.4861 42.0698 42.2445 42.2833 42.0685 42.5694C41.7468 43.093 41.7315 43.7104 41.9386 44.2796C43.533 48.6612 46.2203 52.0682 50.6304 53.9033C51.3361 54.1969 52.0448 54.5388 52.8578 54.444C54.2193 54.2849 54.6602 52.7915 55.6142 52.0112C56.5468 51.2487 57.7385 51.2386 58.7431 51.8743C59.7478 52.5102 60.7218 53.1928 61.69 53.8827C62.6403 54.5598 63.5865 55.2223 64.4631 55.9942C65.3059 56.7365 65.5962 57.7104 65.1216 58.7178C64.2527 60.5627 62.9883 62.0976 61.1644 63.0774C60.6494 63.3536 60.0344 63.4431 59.4536 63.622C58.7856 63.419 60.0344 63.4431 59.4536 63.622Z" fill="white"/>
<path d="M50.0188 28.849C58.0312 29.0735 64.612 34.3909 66.0223 42.3122C66.2626 43.662 66.3481 45.0419 66.455 46.4118C66.5 46.988 66.1737 47.5355 65.5518 47.543C64.9096 47.5506 64.6206 47.0133 64.5789 46.4373C64.4964 45.2971 64.4391 44.1519 64.282 43.0212C63.4526 37.0526 58.6932 32.1146 52.7522 31.0549C51.8582 30.8954 50.9432 30.8535 50.0376 30.7585C49.4651 30.6984 48.7154 30.6637 48.5885 29.9521C48.4821 29.3555 48.9857 28.8804 49.5538 28.8499C49.7083 28.8414 49.8636 28.8484 50.0188 28.849C58.0312 29.0735 49.8636 28.8484 50.0188 28.849Z" fill="white"/>
<path d="M62.1962 44.6347C62.1831 44.7348 62.1761 44.97 62.1175 45.1916C61.9048 45.9961 60.6853 46.0968 60.4044 45.2849C60.3212 45.044 60.3087 44.7699 60.3083 44.5105C60.3054 42.8135 59.9366 41.1182 59.0808 39.6417C58.2011 38.1241 56.8571 36.8483 55.2807 36.0764C54.3276 35.6097 53.2967 35.3196 52.252 35.1467C51.7954 35.0712 51.3339 35.0253 50.8751 34.9615C50.319 34.8842 50.0222 34.5299 50.0485 33.9819C50.0731 33.4685 50.4483 33.0992 51.0078 33.1308C52.8466 33.2352 54.6227 33.6326 56.2574 34.4983C59.5818 36.2587 61.4807 39.0376 62.035 42.7481C62.06 42.9162 62.1003 43.0827 62.1131 43.2515C62.1445 43.6682 62.1642 44.0853 62.1962 44.6347C62.1831 44.7348 62.1642 44.0853 62.1962 44.6347Z" fill="white"/>
<path d="M57.2102 44.44C56.5399 44.452 56.1811 44.081 56.112 43.4664C56.064 43.0378 56.026 42.6036 55.9237 42.1867C55.7223 41.3656 55.2859 40.6046 54.5951 40.1014C54.269 39.8638 53.8995 39.6907 53.5125 39.579C53.0207 39.437 52.5101 39.4761 52.0195 39.3558C51.4867 39.2253 51.192 38.7939 51.2758 38.294C51.352 37.8391 51.7946 37.4841 52.2916 37.5201C55.398 37.7443 57.6182 39.3503 57.935 43.0073C57.9574 43.2654 57.9837 43.5381 57.9265 43.785C57.8284 44.2076 57.5155 44.4193 57.2102 44.44C56.5399 44.452 57.5155 44.4193 57.2102 44.44Z" fill="white"/>
</svg>
