<svg width="100" height="100" viewBox="0 0 100 100" fill="none" xmlns="http://www.w3.org/2000/svg">
<path d="M100 0H0V100H100V0Z" fill="#44678D"/>
<path d="M25.9063 30.4324C28.3029 36.3508 31.3402 41.9309 35.3406 46.9402C35.8712 47.6068 36.54 48.1995 37.2446 48.682C38.2737 49.3888 39.2446 49.1404 39.6631 47.9632C40.1057 46.7278 40.5118 44.2241 40.536 42.9269C40.602 39.5371 40.5261 37.3157 40.344 33.9301C40.2259 31.7617 39.4551 29.8578 36.2655 29.2831C35.2805 29.1049 35.189 28.2941 35.8218 27.4853C37.1392 25.8014 38.9745 25.5331 40.9647 25.4269C44.1903 25.2526 47.4278 25.3948 50.6573 25.4269C51.9728 25.4389 53.2961 25.5449 54.5916 25.8273C56.2814 26.1957 57.1864 27.3811 57.4648 29.0307C57.609 29.8817 57.6832 30.7565 57.663 31.6176C57.5789 35.3176 57.4008 39.0156 57.3586 42.7136C57.3406 44.1651 57.4466 45.6528 57.7571 47.0664C58.1916 49.0364 59.5329 49.531 60.9046 48.1076C62.6464 46.2997 64.1822 44.2654 65.6236 42.1992C68.2425 38.4411 70.1984 34.3167 71.8823 30.0642C72.7532 27.87 73.4201 27.3934 75.7805 27.3874C80.2173 27.3773 84.6541 27.3734 89.0909 27.3874C89.8778 27.3914 90.7007 27.4656 91.4434 27.7019C92.6487 28.0863 93.1273 29.0694 92.8449 30.3168C92.1862 33.24 90.6065 35.7246 88.9147 38.1133C86.1998 41.9454 83.3547 45.6855 80.5758 49.4735C80.2215 49.956 79.9092 50.4706 79.6187 50.993C78.5795 52.8711 78.6517 53.9241 80.1673 55.4878C82.5799 57.9765 85.1627 60.3049 87.4992 62.8617C89.1971 64.7217 90.7687 66.7398 92.1142 68.8641C93.8161 71.551 92.7648 74.0816 89.5855 74.5321C87.5854 74.8145 77.8152 74.5343 77.3103 74.5321C74.6835 74.5203 72.3811 73.6092 70.5269 71.8253C68.4647 69.8392 66.5906 67.6608 64.6105 65.5885C64.0139 64.9638 63.3771 64.3652 62.6905 63.8425C61.0707 62.6071 59.4809 62.8814 58.7241 64.7836C58.0775 66.4175 57.5188 70.7079 57.4927 71.0744C57.3566 72.9904 56.1373 74.2118 53.9908 74.3298C47.7942 74.6662 41.7896 73.9754 36.1957 70.9783C31.4545 68.4395 27.6685 64.8497 24.389 60.6632C19.1793 54.0137 15.0644 46.7043 11.3075 39.1804C11.1155 38.7957 7.31045 30.6988 7.2082 30.3164C6.86831 29.0358 7.18538 27.8125 8.26738 27.3914C8.9419 27.129 21.4875 27.3905 21.6961 27.4017C23.698 27.5101 25.063 28.3547 25.9063 30.4324Z" fill="white"/>
</svg>
