<svg width="100" height="100" viewBox="0 0 100 100" fill="none" xmlns="http://www.w3.org/2000/svg">
<path d="M100 0H0V100H100V0Z" fill="#1BD741"/>
<path d="M15.0312 85.0092L19.9295 67.6121C16.7796 62.2609 15.1212 56.1724 15.1212 49.9178C15.1212 30.6598 30.7888 14.9922 50.0469 14.9922C69.3049 14.9922 84.9723 30.6598 84.9723 49.9178C84.9723 69.1759 69.3049 84.8435 50.0469 84.8435C44.0462 84.8435 38.1703 83.3075 32.9723 80.3909L15.0312 85.0092ZM33.8895 74.0369L34.9586 74.6897C39.4906 77.4565 44.7082 78.9189 50.0469 78.9189C66.0381 78.9189 79.0477 65.9091 79.0477 49.9178C79.0477 33.9266 66.0381 20.9167 50.0469 20.9167C34.0556 20.9167 21.0458 33.9266 21.0458 49.9178C21.0458 55.4898 22.6294 60.9006 25.625 65.5655L26.3449 66.6865L23.5242 76.7051L33.8895 74.0369Z" fill="white"/>
<path d="M40.2337 33.6628L37.9674 33.5393C37.2556 33.5004 36.5574 33.7383 36.0193 34.2057C34.9207 35.1597 33.1639 37.0042 32.6244 39.4079C31.8197 42.9918 33.0632 47.3803 36.2816 51.7689C39.4999 56.1574 45.4975 63.1791 56.1031 66.178C59.5207 67.1444 62.2091 66.4929 64.2834 65.166C65.9262 64.1152 67.0587 62.4285 67.4668 60.5216L67.8287 58.8316C67.9437 58.2944 67.6709 57.7494 67.1719 57.5194L59.5128 53.989C59.0156 53.76 58.426 53.9048 58.0916 54.3382L55.0848 58.2361C54.8577 58.5305 54.4688 58.6473 54.1177 58.524C52.0586 57.8003 45.1611 54.9115 41.3765 47.6213C41.2123 47.3051 41.2531 46.9213 41.4859 46.6516L44.3596 43.3273C44.6532 42.9878 44.7273 42.5106 44.5509 42.098L41.2494 34.374C41.0736 33.9628 40.6798 33.6872 40.2337 33.6628Z" fill="white"/>
</svg>
